<?xml version="1.0" encoding="UTF-8"?>
<!DOCTYPE svg PUBLIC "-//W3C//DTD SVG 1.1//EN" "http://www.w3.org/Graphics/SVG/1.1/DTD/svg11.dtd">
<!-- Creator: CorelDRAW 2020 (64-Bit) -->
<svg xmlns="http://www.w3.org/2000/svg" xml:space="preserve" width="169.436mm" height="188.541mm" version="1.1" style="shape-rendering:geometricPrecision; text-rendering:geometricPrecision; image-rendering:optimizeQuality; fill-rule:evenodd; clip-rule:evenodd"
viewBox="0 0 300.35 334.22"
 xmlns:xlink="http://www.w3.org/1999/xlink"
 xmlns:xodm="http://www.corel.com/coreldraw/odm/2003">
 <defs>
  <style type="text/css">
   <![CDATA[
    .fil0 {fill:none}
    .fil1 {fill:#545253}
    .fil2 {fill:#545253;fill-rule:nonzero}
   ]]>
  </style>
 </defs>
 <g id="Слой_x0020_1">
  <metadata id="CorelCorpID_0Corel-Layer"/>
  <rect class="fil0" x="-0" y="-0" width="300.35" height="334.22"/>
  <g id="_1861397851632">
   <polygon class="fil1" points="150.26,100.71 179.78,130.23 162.35,148.32 143.89,129.87 149.96,124 162.48,136.53 168.58,130.43 150.81,112.66 133.02,130.46 156.61,154.06 150.39,160.29 120.64,130.54 "/>
   <polygon class="fil1" points="186.42,64.27 156.9,93.79 174.34,111.89 192.79,93.43 186.73,87.56 174.21,100.09 168.11,93.99 185.87,76.23 203.67,94.02 180.07,117.62 186.3,123.85 216.05,94.1 "/>
   <polygon class="fil1" points="222.7,160.16 193.18,130.63 210.62,112.54 229.07,131 223.01,136.86 210.48,124.34 204.39,130.44 222.15,148.2 239.95,130.4 216.35,106.81 222.58,100.58 252.32,130.32 "/>
   <polygon class="fil1" points="156.89,166.88 186.41,137.36 204.51,154.8 186.05,173.25 180.18,167.19 192.71,154.66 186.61,148.57 168.85,166.33 186.64,184.13 210.24,160.53 216.47,166.76 186.72,196.5 "/>
   <polygon class="fil1" points="113.99,64.27 84.47,93.79 101.91,111.89 120.36,93.43 114.3,87.56 101.77,100.09 95.68,93.99 113.44,76.23 131.24,94.02 107.64,117.62 113.87,123.85 143.61,94.1 "/>
   <polygon class="fil1" points="84.25,166.88 113.77,137.36 131.87,154.8 113.41,173.25 107.55,167.19 120.07,154.66 113.97,148.57 96.21,166.33 114,184.13 137.6,160.53 143.83,166.76 114.09,196.5 "/>
   <polygon class="fil1" points="77.65,100.71 107.17,130.23 89.74,148.32 71.28,129.87 77.34,124 89.87,136.53 95.96,130.43 78.2,112.66 60.4,130.46 84,154.06 77.77,160.29 48.03,130.54 "/>
   <polygon class="fil1" points="128.53,209.64 137.23,209.64 137.23,252.75 128.53,252.75 "/>
   <polygon class="fil1" points="122.47,252.55 95.11,209.64 85.23,209.64 98.74,229.74 98.74,231.92 84.24,252.55 94.46,252.55 103.49,238.45 113.64,252.55 "/>
   <polygon class="fil1" points="109.35,228.56 121.94,209.64 112.71,209.64 104.87,221.44 "/>
   <polygon class="fil1" points="144.37,209.64 152.94,209.64 168.36,252.75 159.4,252.75 "/>
   <polygon class="fil1" points="173.37,209.71 182.53,209.71 168.82,248 163.95,236.14 "/>
   <polygon class="fil1" points="190.58,209.77 198.88,209.77 215.49,252.75 206.66,252.75 195.19,222.82 190.05,234.82 198.22,234.82 201.12,244.05 186.75,244.05 183.59,252.75 173.04,252.75 "/>
   <path class="fil2" d="M91.15 265.62l0 -1.89 4.87 0 0 4.47c-0.47,0.46 -1.16,0.87 -2.06,1.22 -0.9,0.35 -1.81,0.52 -2.73,0.52 -1.17,0 -2.19,-0.25 -3.06,-0.74 -0.87,-0.49 -1.52,-1.2 -1.96,-2.12 -0.44,-0.92 -0.66,-1.92 -0.66,-2.99 0,-1.17 0.25,-2.21 0.73,-3.12 0.49,-0.91 1.21,-1.61 2.15,-2.09 0.72,-0.37 1.61,-0.56 2.68,-0.56 1.39,0 2.48,0.29 3.26,0.88 0.78,0.59 1.28,1.39 1.51,2.43l-2.25 0.42c-0.16,-0.55 -0.45,-0.99 -0.89,-1.31 -0.43,-0.32 -0.98,-0.48 -1.63,-0.48 -0.99,0 -1.77,0.31 -2.35,0.94 -0.58,0.63 -0.87,1.56 -0.87,2.79 0,1.33 0.29,2.33 0.88,3 0.59,0.67 1.36,1 2.32,1 0.47,0 0.95,-0.09 1.42,-0.28 0.48,-0.19 0.88,-0.41 1.23,-0.68l0 -1.42 -2.58 0zm12.5 4.12l0 -11.21 2.27 0 0 11.21 -2.27 0zm10.11 0l0 -11.12 2.27 0 0 9.22 5.62 0 0 1.89 -7.89 0zm25.22 0l-2.44 0 -0.97 -2.55 -4.5 0 -0.93 2.55 -2.4 0 4.35 -11.21 2.4 0 4.49 11.21zm-4.15 -4.45l-1.56 -4.15 -1.51 4.15 3.07 0zm10.94 4.45l0 -11.21 3.4 0 2.01 7.64 1.99 -7.64 3.41 0 0 11.21 -2.1 0 -0.01 -8.82 -2.21 8.82 -2.18 0 -2.2 -8.82 -0.01 8.82 -2.1 0zm18.75 0l0 -11.12 2.27 0 0 9.22 5.62 0 0 1.89 -7.89 0zm25.22 0l-2.44 0 -0.97 -2.55 -4.5 0 -0.93 2.55 -2.4 0 4.35 -11.21 2.4 0 4.49 11.21zm-4.15 -4.45l-1.56 -4.15 -1.51 4.15 3.07 0zm10.97 4.45l0 -11.21 4.77 0c1.2,0 2.07,0.1 2.61,0.3 0.55,0.2 0.98,0.56 1.3,1.07 0.33,0.52 0.49,1.1 0.49,1.77 0,0.84 -0.25,1.54 -0.74,2.08 -0.49,0.55 -1.23,0.89 -2.21,1.04 0.49,0.28 0.89,0.6 1.21,0.94 0.32,0.34 0.75,0.95 1.28,1.82l1.37 2.19 -2.71 0 -1.62 -2.45c-0.58,-0.87 -0.98,-1.42 -1.2,-1.64 -0.21,-0.22 -0.44,-0.38 -0.68,-0.46 -0.24,-0.08 -0.62,-0.13 -1.15,-0.13l-0.46 0 0 4.68 -2.27 0zm2.27 -6.47l1.67 0c1.09,0 1.76,-0.05 2.03,-0.14 0.27,-0.09 0.48,-0.25 0.63,-0.47 0.15,-0.22 0.23,-0.51 0.23,-0.84 0,-0.38 -0.1,-0.68 -0.3,-0.92 -0.2,-0.23 -0.49,-0.38 -0.85,-0.44 -0.19,-0.03 -0.74,-0.04 -1.65,-0.04l-1.77 0 0 2.85zm14.58 6.47l0 -11.21 2.27 0 0 11.21 -2.27 0z"/>
  </g>
 </g>
</svg>
