<?xml version="1.0" encoding="UTF-8"?>
<!DOCTYPE svg PUBLIC "-//W3C//DTD SVG 1.1//EN" "http://www.w3.org/Graphics/SVG/1.1/DTD/svg11.dtd">
<!-- Creator: CorelDRAW 2020 (64-Bit) -->
<svg xmlns="http://www.w3.org/2000/svg" xml:space="preserve" width="17.858mm" height="17.0245mm" version="1.1" style="shape-rendering:geometricPrecision; text-rendering:geometricPrecision; image-rendering:optimizeQuality; fill-rule:evenodd; clip-rule:evenodd"
viewBox="0 0 8.62 8.22"
 xmlns:xlink="http://www.w3.org/1999/xlink"
 xmlns:xodm="http://www.corel.com/coreldraw/odm/2003">
 <defs>
  <style type="text/css">
   <![CDATA[
    .fil0 {fill:white}
   ]]>
  </style>
 </defs>
 <g id="Слой_x0020_1">
  <metadata id="CorelCorpID_0Corel-Layer"/>
  <g id="_2582978932352">
   <path class="fil0" d="M0.76 6.95c0.46,0 0.65,0.51 0.38,0.82 -0.12,0.14 -0.27,0.16 -0.43,0.16 -0.33,0 -0.61,-0.51 -0.29,-0.83 0.07,-0.07 0.2,-0.15 0.34,-0.15zm5.96 -6.95l0.17 0c0.34,0.02 0.68,0.13 0.98,0.34 0.44,0.32 0.7,0.83 0.75,1.35l0 0.3c-0.02,0.2 -0.07,0.4 -0.16,0.58 -0.05,0.11 -0.09,0.18 -0.15,0.27 -0.03,0.05 -0.06,0.08 -0.1,0.12 -0.13,0.14 -0.14,0.17 -0.32,0.31 -0.32,0.24 -0.26,0.28 -0.52,0.72l-0.3 0.54c-0.08,0.12 -0.13,0.11 -0.22,0.2 -0.07,0.07 -0.13,0.13 -0.2,0.2l-0.85 0.81c0.01,0.05 0.03,0.09 0.05,0.14 0.07,0.27 -0.02,0.55 -0.2,0.73 -0.31,0.32 -0.87,0.29 -1.12,-0.02 -0.24,-0.29 -0.21,-0.44 -0.19,-0.69l-0.62 -0.36c-0.21,-0.12 -0.4,-0.25 -0.61,-0.36 -0.07,0.3 -0.6,0.65 -1.06,0.4l-0.81 1.23c0.2,0.05 0.54,0.7 0.1,1.14 -0.08,0.08 -0.1,0.11 -0.21,0.16 -0.29,0.15 -0.67,0.08 -0.89,-0.14 -0.16,-0.16 -0.22,-0.34 -0.22,-0.59l0 -0c0,-0.59 0.69,-0.84 0.98,-0.71 0.14,-0.21 0.28,-0.41 0.42,-0.63l0.41 -0.64c0,-0.02 -0.46,-0.58 0.05,-1.08 0.44,-0.43 1.2,-0.17 1.29,0.4 0.01,0.07 0,0.13 0.05,0.17l0.7 0.41c0.11,0.06 0.47,0.3 0.56,0.32 0.11,-0.17 0.29,-0.31 0.54,-0.34 0.34,-0.04 0.44,0.07 0.64,0.2 0.16,-0.08 0.33,-0.34 0.49,-0.46 0.16,-0.12 0.38,-0.39 0.47,-0.45 -0.07,-0.11 -0.14,-0.23 -0.2,-0.34l-0.19 -0.35c-0.06,-0.12 -0.13,-0.23 -0.2,-0.34 -0.21,-0.39 -0.41,-0.25 -0.76,-0.84 -0.22,-0.37 -0.25,-0.62 -0.25,-1.05 0,-0.46 0.24,-0.87 0.54,-1.17 0.32,-0.33 0.75,-0.51 1.2,-0.53zm-2.13 6.15c0,-0.2 0.01,-0.28 0.16,-0.42 0.32,-0.32 0.82,-0.03 0.82,0.3 0,0.18 -0.01,0.27 -0.15,0.41 -0.34,0.34 -0.83,0.01 -0.83,-0.29zm-2.71 -1.23c0,-0.04 0.03,-0.14 0.04,-0.18 0.06,-0.15 0.22,-0.31 0.4,-0.31 0.17,0 0.32,0.02 0.43,0.16 0.49,0.61 -0.54,1.19 -0.82,0.52 -0.02,-0.04 -0.04,-0.15 -0.04,-0.19zm4.92 -0.47c-0.07,-0.05 -0.45,-0.75 -0.5,-0.85 -0.15,-0.28 -0.16,-0.32 -0.4,-0.5 -0.18,-0.13 -0.22,-0.17 -0.34,-0.33 -0.56,-0.72 -0.39,-1.8 0.45,-2.29 1.22,-0.72 2.72,0.46 2.26,1.84 -0.08,0.24 -0.25,0.52 -0.44,0.67 -0.12,0.1 -0.29,0.21 -0.37,0.32 -0.12,0.18 -0.59,1.08 -0.67,1.14z"/>
   <path class="fil0" d="M7.56 2.53c-0.08,0 -0.12,0.05 -0.17,0.09 -0.27,0.22 -0.65,0.25 -0.99,0.11 -0.21,-0.09 -0.4,-0.28 -0.5,-0.49 -0.38,-0.84 0.51,-1.69 1.3,-1.32 0.28,0.13 0.49,0.38 0.57,0.68 0.1,0.43 -0.1,0.58 -0.06,0.71 0.03,0.09 0.08,0.09 0.17,0.09 0.17,0 0.29,-0.71 0.07,-1.13 -0.2,-0.38 -0.6,-0.71 -1.04,-0.71 -0.33,0 -0.52,0.01 -0.82,0.21 -0.57,0.39 -0.72,1.18 -0.37,1.71 0.07,0.11 0.09,0.14 0.18,0.22 0.41,0.41 1.02,0.51 1.52,0.23 0.48,-0.27 0.2,-0.41 0.15,-0.41z"/>
  </g>
 </g>
</svg>
